HIERARCHY
ROOT Hips
{
  OFFSET 0.0273292 -0.436096 0.279869
  CHANNELS 6 Xposition Yposition Zposition Zrotation Xrotation Yrotation
  JOINT LHipJoint
  {
    OFFSET 0 0 0
    CHANNELS 6 Xposition Yposition Zposition Zrotation Xrotation Yrotation
    JOINT LeftUpLeg
    {
      OFFSET 1.36306 -1.79463 0
      CHANNELS 6 Xposition Yposition Zposition Zrotation Xrotation Yrotation
      JOINT LeftLeg
      {
        OFFSET 2.44807 -6.72613 0.000295034
        CHANNELS 6 Xposition Yposition Zposition Zrotation Xrotation Yrotation
        JOINT LeftFoot
        {
          OFFSET 2.5622 -7.03959 3.59965e-05
          CHANNELS 6 Xposition Yposition Zposition Zrotation Xrotation Yrotation
          JOINT LeftToeBase
          {
            OFFSET 0.15764 -0.43311 2.32255
            CHANNELS 6 Xposition Yposition Zposition Zrotation Xrotation Yrotation
            End Site
            {
              OFFSET 0 0 0
            }
          }
        }
      }
    }
  }
  JOINT RHipJoint
  {
    OFFSET 0 0 0
    CHANNELS 6 Xposition Yposition Zposition Zrotation Xrotation Yrotation
    JOINT RightUpLeg
    {
      OFFSET -1.30552 -1.79463 0
      CHANNELS 6 Xposition Yposition Zposition Zrotation Xrotation Yrotation
      JOINT RightLeg
      {
        OFFSET -2.54234 -6.98562 -0.000396375
        CHANNELS 6 Xposition Yposition Zposition Zrotation Xrotation Yrotation
        JOINT RightFoot
        {
          OFFSET -2.56826 -7.05623 -4.47982e-05
          CHANNELS 6 Xposition Yposition Zposition Zrotation Xrotation Yrotation
          JOINT RightToeBase
          {
            OFFSET -0.16473 -0.45259 2.36315
            CHANNELS 6 Xposition Yposition Zposition Zrotation Xrotation Yrotation
            End Site
            {
              OFFSET 0 0 0
            }
          }
        }
      }
    }
  }
  JOINT LowerBack
  {
    OFFSET 0 0 0
    CHANNELS 6 Xposition Yposition Zposition Zrotation Xrotation Yrotation
    JOINT Spine
    {
      OFFSET 0.0282699 2.03559 0
      CHANNELS 6 Xposition Yposition Zposition Zrotation Xrotation Yrotation
      JOINT Spine1
      {
        OFFSET 0.05672 2.04885 -0.04275
        CHANNELS 6 Xposition Yposition Zposition Zrotation Xrotation Yrotation
        JOINT Neck
        {
          OFFSET 0 0 0
          CHANNELS 6 Xposition Yposition Zposition Zrotation Xrotation Yrotation
          JOINT Neck1
          {
            OFFSET -0.05417 1.74624 0.17202
            CHANNELS 6 Xposition Yposition Zposition Zrotation Xrotation Yrotation
            JOINT Head
            {
              OFFSET 0.10407 1.76136 -0.12397
              CHANNELS 6 Xposition Yposition Zposition Zrotation Xrotation Yrotation
              End Site
              {
                OFFSET 0 0 0
              }
            }
          }
        }
        JOINT LeftShoulder
        {
          OFFSET 0 0 0
          CHANNELS 6 Xposition Yposition Zposition Zrotation Xrotation Yrotation
          JOINT LeftArm
          {
            OFFSET 3.36241 1.20089 -0.311211
            CHANNELS 6 Xposition Yposition Zposition Zrotation Xrotation Yrotation
            JOINT LeftForeArm
            {
              OFFSET 4.983 0.000197398 0.000166057
              CHANNELS 6 Xposition Yposition Zposition Zrotation Xrotation Yrotation
              JOINT LeftHand
              {
                OFFSET 3.48356 0 1.87849e-05
                CHANNELS 6 Xposition Yposition Zposition Zrotation Xrotation Yrotation
                JOINT LeftFingerBase
                {
                  OFFSET 0 0 0
                  CHANNELS 6 Xposition Yposition Zposition Zrotation Xrotation Yrotation
                  JOINT LeftHandIndex1
                  {
                    OFFSET 0.71526 0 0
                    CHANNELS 6 Xposition Yposition Zposition Zrotation Xrotation Yrotation
                    End Site
                    {
                      OFFSET 0 0 0
                    }
                  }
                }
                JOINT LThumb
                {
                  OFFSET 0 0 0
                  CHANNELS 6 Xposition Yposition Zposition Zrotation Xrotation Yrotation
                  End Site
                  {
                    OFFSET 0 0 0
                  }
                }
              }
            }
          }
        }
        JOINT RightShoulder
        {
          OFFSET 0 0 0
          CHANNELS 6 Xposition Yposition Zposition Zrotation Xrotation Yrotation
          JOINT RightArm
          {
            OFFSET -3.1366 1.37405 -0.404651
            CHANNELS 6 Xposition Yposition Zposition Zrotation Xrotation Yrotation
            JOINT RightForeArm
            {
              OFFSET -5.2419 -5.8808e-05 -0.000165864
              CHANNELS 6 Xposition Yposition Zposition Zrotation Xrotation Yrotation
              JOINT RightHand
              {
                OFFSET -3.44417 0 -2.00002e-05
                CHANNELS 6 Xposition Yposition Zposition Zrotation Xrotation Yrotation
                JOINT RightFingerBase
                {
                  OFFSET 0 0 0
                  CHANNELS 6 Xposition Yposition Zposition Zrotation Xrotation Yrotation
                  JOINT RightHandIndex1
                  {
                    OFFSET -0.62253 0 0
                    CHANNELS 6 Xposition Yposition Zposition Zrotation Xrotation Yrotation
                    End Site
                    {
                      OFFSET 0 0 0
                    }
                  }
                }
                JOINT RThumb
                {
                  OFFSET 0 0 0
                  CHANNELS 6 Xposition Yposition Zposition Zrotation Xrotation Yrotation
                  End Site
                  {
                    OFFSET 0 0 0
                  }
                }
              }
            }
          }
        }
      }
    }
  }
}
MOTION
Frames:	4
Frame Time:	0.00833333
0.805962 1.62778 0.267918 -0.298723 -0.690698 2.73669 0 0 0 -1.86361e-17 1.98785e-16 -7.95139e-16 1.36306 -1.79463 3.31937e-08 -22.2756 -13.7181 0.728417 2.44808 -6.72613 0.000301215 -0.171448 27.8664 3.33472 2.56219 -7.0396 6.48033e-06 2.34402 -12.9234 -5.1452 0.15764 -0.43311 2.32255 5.22975e-16 0 -9.93923e-17 0 0 0 -1.86361e-17 1.98785e-16 -7.95139e-16 -1.30552 -1.79463 -1.49382e-08 14.1178 -32.9691 -0.513929 -2.53985 -6.98649 0.0242198 29.7178 63.2485 -47.1341 -2.56826 -7.05623 4.952e-05 6.7881 -2.12098 0.907399 -0.16473 -0.45259 2.36315 0 0 -0 0 0 0 -1.86361e-17 1.98785e-16 -7.95139e-16 0.0282699 2.03559 3.56944e-08 -0.148911 5.10343 -3.71548 0.05672 2.04885 -0.04275 5.51738e-33 -1.59028e-15 1.98785e-16 0 0 0 -3.72721e-17 -1.59028e-15 1.98785e-16 -0.05417 1.74624 0.17202 0.716617 -3.73 0.193149 0.10407 1.76136 -0.12397 7.76503e-18 1.98785e-16 -1.98785e-16 0 0 0 -3.72721e-17 -1.59028e-15 1.98785e-16 3.36241 1.20089 -0.31121 -68.2239 32.3652 -21.0271 4.98301 0.000259156 5.5418e-05 1.08036 0.415767 -17.079 3.48356 6.01457e-06 -9.38786e-06 1.3841 0.485579 -2.53873 0 0 0 6.36111e-15 6.36111e-15 -0 0.71526 0 0 -6.36111e-15 3.18055e-15 -0 0 0 0 6.36111e-15 6.36111e-15 -0 0 0 0 -3.72721e-17 -1.59028e-15 1.98785e-16 -3.1366 1.37405 -0.40465 74.7366 23.5302 8.5055 -5.2419 0.000235456 7.02889e-05 -0.97483 0.122328 1.98677 -3.44417 7.73027e-06 -1.17793e-05 -1.73054 -13.0959 5.66375 0 0 0 -1.98785e-15 -1.59028e-15 -0 -0.62253 4.44089e-16 -1.11022e-16 2.78299e-15 1.59028e-15 -0 0 0 0 -1.98785e-15 -1.59028e-15 -0 
0.786145 1.67365 0.239622 -0.226432 -0.648361 2.97433 0 0 0 -3.72721e-17 -1.98785e-16 -0 1.36306 -1.79463 3.31937e-08 -22.2716 -11.6425 1.83768 2.44808 -6.72613 0.000301215 0.721016 25.9034 2.16627 2.56219 -7.0396 6.48033e-06 1.90433 -12.9134 -5.63253 0.15764 -0.43311 2.32255 3.77924e-15 0 -0 0 0 0 -3.72721e-17 -1.98785e-16 -0 -1.30552 -1.79463 -1.49382e-08 14.5112 -34.6857 0.364641 -2.53985 -6.98649 0.0242198 26.7714 61.6612 -43.8068 -2.56826 -7.05623 4.952e-05 6.84608 -3.4532 1.4794 -0.16473 -0.45259 2.36315 -7.95139e-15 0 -3.18055e-15 0 0 0 -3.72721e-17 -1.98785e-16 -0 0.0282699 2.03559 3.56944e-08 -0.246046 5.12556 -4.05159 0.05672 2.04885 -0.04275 1.36664e-16 0 1.98785e-16 0 0 0 -0 0 1.98785e-16 -0.05417 1.74624 0.17202 0.863509 -3.70903 0.298367 0.10407 1.76136 -0.12397 -9.31803e-18 0 -0 0 0 0 -0 0 1.98785e-16 3.36241 1.20089 -0.31121 -66.2859 33.5938 -23.0709 4.98301 0.000259156 5.5418e-05 1.11188 0.454287 -19.3966 3.48356 6.01457e-06 -9.38786e-06 1.79973 0.352824 -2.46699 0 0 0 -3.18055e-15 -3.18055e-15 -0 0.71526 -8.88178e-16 4.44089e-16 -3.18055e-15 -3.18055e-15 6.36111e-15 0 0 0 -3.18055e-15 -3.18055e-15 -0 0 0 0 -0 0 1.98785e-16 -3.1366 1.37405 -0.40465 75.8712 22.1631 6.98756 -5.2419 0.000235456 7.02889e-05 -0.974787 0.121983 1.97065 -3.44417 7.73027e-06 -1.17793e-05 -0.673361 -12.4649 5.76498 0 0 0 2.78299e-15 0 1.59028e-15 -0.62253 0 0 2.5842e-15 0 1.59028e-15 0 0 0 2.78299e-15 0 1.59028e-15 
0.765811 1.71147 0.212704 -0.163695 -0.538855 3.19831 0 0 0 -3.72721e-17 1.98785e-16 -0 1.36306 -1.79463 3.31937e-08 -22.2915 -9.55874 3.02867 2.44808 -6.72613 0.000301215 1.57847 23.7667 0.983275 2.56219 -7.0396 6.48033e-06 1.44333 -12.9016 -6.15305 0.15764 -0.43311 2.32255 4.88964e-15 -1.2424e-17 9.93923e-17 0 0 0 -3.72721e-17 1.98785e-16 -0 -1.30552 -1.79463 -1.49382e-08 14.9818 -36.2709 1.29263 -2.53985 -6.98649 0.0242198 23.2113 59.6452 -40.0185 -2.56826 -7.05623 4.952e-05 6.92917 -4.71678 2.01487 -0.16473 -0.45259 2.36315 -7.95139e-16 0 -0 0 0 0 -3.72721e-17 1.98785e-16 -0 0.0282699 2.03559 3.56944e-08 -0.365735 5.13907 -4.35621 0.05672 2.04885 -0.04275 3.35449e-16 7.95139e-16 -1.98785e-16 0 0 0 3.60297e-16 0 -1.98785e-16 -0.05417 1.74624 0.17202 1.05382 -3.70414 0.542754 0.10407 1.76136 -0.12397 -6.36732e-17 -1.98785e-16 -1.98785e-16 0 0 0 3.60297e-16 0 -1.98785e-16 3.36241 1.20089 -0.31121 -64.1409 34.8603 -25.1694 4.98301 0.000259156 5.5418e-05 1.14586 0.494258 -21.9024 3.48356 6.01457e-06 -9.38786e-06 2.13132 0.209342 -2.29618 0 0 0 1.27222e-14 1.27222e-14 -0 0.71526 0 0 3.53113e-31 3.18055e-15 -6.36111e-15 0 0 0 1.27222e-14 1.27222e-14 -0 0 0 0 3.60297e-16 0 -1.98785e-16 -3.1366 1.37405 -0.40465 76.9228 20.8687 5.48868 -5.2419 0.000235456 7.02889e-05 -0.974786 0.121806 1.96238 -3.44417 7.73027e-06 -1.17793e-05 0.537212 -11.7725 5.80101 0 0 0 1.39149e-15 -1.59028e-15 -1.59028e-15 -0.62253 4.44089e-16 0 7.95139e-16 0 -0 0 0 0 1.39149e-15 -1.59028e-15 -1.59028e-15 
0.744199 1.73715 0.188026 -0.0771804 -0.387989 3.43018 0 0 0 2.17421e-17 0 -1.59028e-15 1.36306 -1.79463 3.31937e-08 -22.356 -7.4835 4.25956 2.44808 -6.72613 0.000301215 2.36419 21.5412 -0.148786 2.56219 -7.0396 6.48033e-06 0.963574 -12.8872 -6.73206 0.15764 -0.43311 2.32255 -2.87112e-15 -7.45443e-17 -0 0 0 0 2.17421e-17 0 -1.59028e-15 -1.30552 -1.79463 -1.49382e-08 15.5046 -37.7341 2.24045 -2.53985 -6.98649 0.0242198 19.6037 57.2988 -36.2606 -2.56826 -7.05623 4.952e-05 7.03327 -5.92406 2.52401 -0.16473 -0.45259 2.36315 3.18055e-15 -1.59028e-15 3.18055e-15 0 0 0 2.17421e-17 0 -1.59028e-15 0.0282699 2.03559 3.56944e-08 -0.511503 5.1453 -4.64557 0.05672 2.04885 -0.04275 6.21202e-17 -7.95139e-16 -0 0 0 0 4.47266e-16 0 -1.98785e-16 -0.05417 1.74624 0.17202 1.27035 -3.70071 0.819392 0.10407 1.76136 -0.12397 -2.79541e-17 1.98785e-16 -9.93923e-17 0 0 0 4.47266e-16 0 -1.98785e-16 3.36241 1.20089 -0.31121 -61.8721 36.127 -27.2996 4.98301 0.000259156 5.5418e-05 1.1789 0.537275 -24.4897 3.48356 6.01457e-06 -9.38786e-06 2.5129 0.0647879 -2.09277 0 0 0 3.18055e-15 6.36111e-15 -9.54166e-15 0.71526 0 0 3.18055e-15 -6.36111e-15 -3.18055e-15 0 0 0 3.18055e-15 6.36111e-15 -9.54166e-15 0 0 0 4.47266e-16 0 -1.98785e-16 -3.1366 1.37405 -0.40465 77.9313 19.6058 4.01164 -5.2419 0.000235456 7.02889e-05 -0.974837 0.121741 1.95933 -3.44417 7.73027e-06 -1.17793e-05 1.79475 -11.0339 5.81258 0 0 0 9.93923e-16 -1.59028e-15 -7.95139e-16 -0.62253 -4.44089e-16 -1.11022e-16 -3.97569e-16 0 -0 0 0 0 9.93923e-16 -1.59028e-15 -7.95139e-16 
